<?xml version="1.0" encoding="UTF-8"?>
<svg width="83px" height="36px" viewBox="0 0 83 36" version="1.1" xmlns="http://www.w3.org/2000/svg" xmlns:xlink="http://www.w3.org/1999/xlink">
    <!-- Generator: Sketch 53.2 (72643) - https://sketchapp.com -->
    <title>Combined Shape</title>
    <desc>Created with Sketch.</desc>
    <defs>
        <path d="M30.09217,7.5 L24.830618,7.5 C22.6220138,5.28568405 19.46668,3.9 15.9634359,3.9 C9.28437363,3.9 3.86992386,8.93679656 3.86992386,15.15 C3.86992386,21.3632034 9.28437363,26.4 15.9634359,26.4 C19.6223268,26.4 22.9017058,24.8884506 25.1193395,22.5 L30.09217,22.5 C27.3041332,26.9835122 22.09309,30 16.1246827,30 C7.21926637,30 0,23.2842712 0,15 C0,6.71572875 7.21926637,0 16.1246827,0 C22.09309,0 27.3041332,3.01648785 30.0921674,7.49999582 Z M27.4270305,21 C24.0979028,21 21.3991117,18.3137085 21.3991117,15 C21.3991117,11.6862915 24.0979028,9 27.4270305,9 C30.7561581,9 33.4549492,11.6862915 33.4549492,15 C33.4549492,18.3137085 30.7561581,21 27.4270305,21 Z M39.2028916,21 L34.660533,16.4786797 L34.660533,9 L37.6744924,9 L37.6744924,15.5786797 L38.8800761,16.7786797 L38.8800761,9 L41.8940355,9 L41.8940355,15.5786797 L43.0996193,16.7786797 L43.0996193,9 L46.1135787,9 L46.1135787,21 L43.206717,21 L43.1424584,21.063961 L41.8940355,19.8213203 L41.8940355,21 L39.2028916,21 Z M53.3470812,21 C50.0179536,21 47.3191624,18.3137085 47.3191624,15 C47.3191624,11.6862915 50.0179536,9 53.3470812,9 C56.6762088,9 59.375,11.6862915 59.375,15 C59.375,18.3137085 56.6762088,21 53.3470812,21 Z M68.125,12.9585983 L65.9375,15.0367233 L68.125,17.1148483 L68.125,21.25 L65,21.25 L65,16.5 L63.75,16.5 L63.75,21.25 L60.625,21.25 L60.625,9.375 L63.75,9.375 L65,9.375 L68.125,9.375 L68.125,12.9585983 Z M63.75,13.53125 L65,13.53125 L65,12.34375 L63.75,12.34375 L63.75,13.53125 Z M71.875,9.375 L71.875,12.34375 L73.125,12.34375 L73.125,9.375 L76.25,9.375 L76.25,12.9585983 L74.0625,15.0367233 L76.25,17.1148483 L76.25,21.25 L73.125,21.25 L73.125,16.5 L71.875,16.5 L71.875,21.25 L68.75,21.25 L68.75,9.375 L71.875,9.375 Z M71.875,13.53125 L73.125,13.53125 L73.125,12.34375 L71.875,12.34375 L71.875,13.53125 Z M34.375,22.5 L76.25,22.5 L76.25,25.625 L34.375,25.625 L34.375,22.5 Z" id="path-1"></path>
        <filter x="-7.9%" y="-10.0%" width="115.7%" height="140.0%" filterUnits="objectBoundingBox" id="filter-2">
            <feOffset dx="0" dy="3" in="SourceAlpha" result="shadowOffsetOuter1"></feOffset>
            <feGaussianBlur stdDeviation="1.5" in="shadowOffsetOuter1" result="shadowBlurOuter1"></feGaussianBlur>
            <feColorMatrix values="0 0 0 0 0   0 0 0 0 0   0 0 0 0 0  0 0 0 0.5 0" type="matrix" in="shadowBlurOuter1"></feColorMatrix>
        </filter>
    </defs>
    <g id="Symbols" stroke="none" stroke-width="1" fill="none" fill-rule="evenodd">
        <g id="logo" transform="translate(3.000000, 0.000000)">
            <g id="Combined-Shape">
                <use fill="black" fill-opacity="1" filter="url(#filter-2)" xlink:href="#path-1"></use>
                <use fill="#000000" fill-rule="evenodd" xlink:href="#path-1"></use>
            </g>
        </g>
    </g>
</svg>